<svg width="19" height="19" viewBox="0 0 19 19" fill="none" xmlns="http://www.w3.org/2000/svg">
<path opacity="0.3" d="M3.5 0H1.16667C0.522334 0 0 0.522334 0 1.16667V3.5C0 4.14433 0.522334 4.66667 1.16667 4.66667H3.5C4.14433 4.66667 4.66667 4.14433 4.66667 3.5V1.16667C4.66667 0.522334 4.14433 0 3.5 0Z" fill="#B0B7C3"/>
<path fill-rule="evenodd" clip-rule="evenodd" d="M1.16667 7H3.5C4.14433 7 4.66667 7.52233 4.66667 8.16667V10.5C4.66667 11.1443 4.14433 11.6667 3.5 11.6667H1.16667C0.522334 11.6667 0 11.1443 0 10.5V8.16667C0 7.52233 0.522334 7 1.16667 7ZM8.16667 0H10.5C11.1443 0 11.6667 0.522334 11.6667 1.16667V3.5C11.6667 4.14433 11.1443 4.66667 10.5 4.66667H8.16667C7.52233 4.66667 7 4.14433 7 3.5V1.16667C7 0.522334 7.52233 0 8.16667 0ZM8.16667 7H10.5C11.1443 7 11.6667 7.52233 11.6667 8.16667V10.5C11.6667 11.1443 11.1443 11.6667 10.5 11.6667H8.16667C7.52233 11.6667 7 11.1443 7 10.5V8.16667C7 7.52233 7.52233 7 8.16667 7ZM15.1667 0H17.5C18.1443 0 18.6667 0.522334 18.6667 1.16667V3.5C18.6667 4.14433 18.1443 4.66667 17.5 4.66667H15.1667C14.5223 4.66667 14 4.14433 14 3.5V1.16667C14 0.522334 14.5223 0 15.1667 0ZM15.1667 7H17.5C18.1443 7 18.6667 7.52233 18.6667 8.16667V10.5C18.6667 11.1443 18.1443 11.6667 17.5 11.6667H15.1667C14.5223 11.6667 14 11.1443 14 10.5V8.16667C14 7.52233 14.5223 7 15.1667 7ZM1.16667 14H3.5C4.14433 14 4.66667 14.5223 4.66667 15.1667V17.5C4.66667 18.1443 4.14433 18.6667 3.5 18.6667H1.16667C0.522334 18.6667 0 18.1443 0 17.5V15.1667C0 14.5223 0.522334 14 1.16667 14ZM8.16667 14H10.5C11.1443 14 11.6667 14.5223 11.6667 15.1667V17.5C11.6667 18.1443 11.1443 18.6667 10.5 18.6667H8.16667C7.52233 18.6667 7 18.1443 7 17.5V15.1667C7 14.5223 7.52233 14 8.16667 14ZM15.1667 14H17.5C18.1443 14 18.6667 14.5223 18.6667 15.1667V17.5C18.6667 18.1443 18.1443 18.6667 17.5 18.6667H15.1667C14.5223 18.6667 14 18.1443 14 17.5V15.1667C14 14.5223 14.5223 14 15.1667 14Z" fill="#B0B7C3"/>
</svg>
